{"title":"The Longest Day(1962)MP-4[DaScubaDude]","uid":12357385,"size":1787715262,"categoryP":"video","categoryS":"movies","magnet":"?xt=urn:btih:1c3da7aef74e49f05ddb68eafe3ed671cbee1b5c&amp;dn=The+Longest+Day%281962%29MP-4%5BDaScubaDude%5D&amp;tr=udp%3A%2F%2Ftracker.openbittorrent.com%3A80&amp;tr=udp%3A%2F%2Fopen.demonii.com%3A1337&amp;tr=udp%3A%2F%2Ftracker.coppersurfer.tk%3A6969&amp;tr=udp%3A%2F%2Fexodus.desync.com%3A6969","seeders":3,"leechers":0,"uploader":"dascuba","files":1,"time":1441490304,"description":"The Longest Day (1962)\nG  |  178 min  |  Action, Drama, History  |  4 October 1962 (USA)\n7.8 Your rating:   -/10   Ratings: 7.8/10 from 40,754 users   \nReviews: 188 user | 52 critic\nThe events of D-Day, told on a grand scale from both the Allied and German points of view.\n\nDirectors: Ken Annakin, Andrew Marton, 3 more credits Â»\nWriters: Cornelius Ryan (screenplay), Cornelius Ryan (book), 4 more credits Â»\nStars: John Wayne, Robert Ryan, Richard Burton\n\nGeneral\nComplete name                            : C:The Longest DayThe Longest Day.mp4\nFormat                                   : MPEG-4\nFormat profile                           : Base Media\nCodec ID                                 : isom\nFile size                                : 1.66 GiB\nDuration                                 : 2h 58mn\nOverall bit rate mode                    : Variable\nOverall bit rate                         : 1 338 Kbps\nMovie name                               : LONGEST_DAY\nGenre                                    : War_WW2\nWriting application                      : Lavf54.6.100\n\nVideo\nID                                       : 1\nFormat                                   : AVC\nFormat/Info                              : Advanced Video Codec\nFormat profile                           : Baseline@L3\nFormat settings, CABAC                   : No\nFormat settings, ReFrames                : 6 frames\nCodec ID                                 : avc1\nCodec ID/Info                            : Advanced Video Coding\nDuration                                 : 2h 58mn\nBit rate                                 : 1 203 Kbps\nWidth                                    : 720 pixels\nHeight                                   : 540 pixels\nDisplay aspect ratio                     : 4:3\nFrame rate mode                          : Constant\nFrame rate                               : 29.970 fps\nColor space                              : YUV\nChroma subsampling                       : 4:2:0\nBit depth                                : 8 bits\nScan type                                : Progressive\nBits/(Pixel*Frame)                       : 0.103\nStream size                              : 1.50 GiB (90%)\n\nAudio\nID                                       : 2\nFormat                                   : AAC\nFormat/Info                              : Advanced Audio Codec\nFormat profile                           : LC\nCodec ID                                 : 40\nDuration                                 : 2h 58mn\nBit rate mode                            : Variable\nBit rate                                 : 128 Kbps\nMaximum bit rate                         : 180 Kbps\nChannel(s)                               : 2 channels\nChannel positions                        : Front: L R\nSampling rate                            : 44.1 KHz\nCompression mode                         : Lossy\nStream size                              : 163 MiB (10%)","torrent":{"xt":"urn:btih:1c3da7aef74e49f05ddb68eafe3ed671cbee1b5c","amp;dn":"The+Longest+Day%281962%29MP-4%5BDaScubaDude%5D","amp;tr":["udp%3A%2F%2Ftracker.openbittorrent.com%3A80","udp%3A%2F%2Fopen.demonii.com%3A1337","udp%3A%2F%2Ftracker.coppersurfer.tk%3A6969","udp%3A%2F%2Fexodus.desync.com%3A6969"],"infoHash":"1c3da7aef74e49f05ddb68eafe3ed671cbee1b5c","infoHashBuffer":{"type":"Buffer","data":[28,61,167,174,247,78,73,240,93,219,104,234,254,62,214,113,203,238,27,92]},"announce":[],"urlList":[]}}